<svg width="40" height="40" viewBox="0 0 40 40" fill="none" xmlns="http://www.w3.org/2000/svg">
<g opacity="0.9">
<path fill-rule="evenodd" clip-rule="evenodd" d="M16.2498 29.9996C18.0554 29.9996 19.8434 29.644 21.5116 28.953C23.1798 28.262 24.6956 27.2492 25.9724 25.9724C27.2492 24.6956 28.262 23.1798 28.953 21.5116C29.644 19.8434 29.9996 18.0554 29.9996 16.2498C29.9996 14.4441 29.644 12.6562 28.953 10.988C28.262 9.31976 27.2492 7.80399 25.9724 6.5272C24.6956 5.25041 23.1798 4.2376 21.5116 3.54661C19.8434 2.85562 18.0554 2.49997 16.2498 2.49997C12.6031 2.49997 9.10579 3.94861 6.5272 6.5272C3.94861 9.10579 2.49997 12.6031 2.49997 16.2498C2.49997 19.8965 3.94861 23.3938 6.5272 25.9724C9.10579 28.551 12.6031 29.9996 16.2498 29.9996ZM32.4996 16.2498C32.4996 20.5595 30.7876 24.6927 27.7401 27.7401C24.6927 30.7876 20.5595 32.4996 16.2498 32.4996C11.9401 32.4996 7.80688 30.7876 4.75945 27.7401C1.71203 24.6927 0 20.5595 0 16.2498C0 11.9401 1.71203 7.80688 4.75945 4.75945C7.80688 1.71203 11.9401 0 16.2498 0C20.5595 0 24.6927 1.71203 27.7401 4.75945C30.7876 7.80688 32.4996 11.9401 32.4996 16.2498Z" fill="white"/>
<path d="M25.8596 29.3546C25.9346 29.4546 26.0146 29.5496 26.1046 29.6421L35.7295 39.267C36.1983 39.7361 36.8342 39.9998 37.4973 40C38.1605 40.0002 38.7966 39.737 39.2657 39.2683C39.7348 38.7995 39.9985 38.1636 39.9987 37.5004C39.9989 36.8372 39.7357 36.2011 39.267 35.7321L29.6421 26.1072C29.5527 26.0167 29.4566 25.9331 29.3546 25.8572C28.3739 27.1944 27.1954 28.3745 25.8596 29.3571V29.3546Z" fill="white"/>
<path fill-rule="evenodd" clip-rule="evenodd" d="M16.2496 7.49988C16.5812 7.49988 16.8991 7.63157 17.1335 7.86599C17.3679 8.10041 17.4996 8.41835 17.4996 8.74986V14.9998H23.7495C24.0811 14.9998 24.399 15.1315 24.6334 15.3659C24.8678 15.6003 24.9995 15.9183 24.9995 16.2498C24.9995 16.5813 24.8678 16.8992 24.6334 17.1336C24.399 17.3681 24.0811 17.4998 23.7495 17.4998H17.4996V23.7497C17.4996 24.0812 17.3679 24.3991 17.1335 24.6335C16.8991 24.868 16.5812 24.9997 16.2496 24.9997C15.9181 24.9997 15.6002 24.868 15.3658 24.6335C15.1314 24.3991 14.9997 24.0812 14.9997 23.7497V17.4998H8.74974C8.41822 17.4998 8.10029 17.3681 7.86587 17.1336C7.63145 16.8992 7.49976 16.5813 7.49976 16.2498C7.49976 15.9183 7.63145 15.6003 7.86587 15.3659C8.10029 15.1315 8.41822 14.9998 8.74974 14.9998H14.9997V8.74986C14.9997 8.41835 15.1314 8.10041 15.3658 7.86599C15.6002 7.63157 15.9181 7.49988 16.2496 7.49988Z" fill="white"/>
</g>
</svg>
